<?xml version="1.0" encoding="utf-8"?>
<!-- Generator: Adobe Illustrator 27.2.0, SVG Export Plug-In . SVG Version: 6.00 Build 0)  -->
<svg version="1.1" id="Layer_1" xmlns="http://www.w3.org/2000/svg" xmlns:xlink="http://www.w3.org/1999/xlink" x="0px" y="0px"
	 viewBox="0 0 48 48" style="enable-background:new 0 0 48 48;" xml:space="preserve">
<path d="M40.7,9.7l1.1,0.3c1.1,0.5,1.8,1.3,2.2,2.4c0.4,1.1,0.3,2.3-0.3,3.4l-3,6.8V9.7z M31.4,5.8c1.1,0,2.1,0.4,2.9,1.2
	s1.2,1.8,1.2,2.9v10.4L30.9,7.2c-0.1-0.3-0.2-0.5-0.3-0.7s-0.3-0.4-0.5-0.7C30.1,5.8,31.4,5.8,31.4,5.8z M22,7
	c0.7-0.3,1.4-0.2,2.2,0.2s1.3,1,1.6,1.8l9.6,26c0.3,0.8,0.3,1.5-0.1,2.2c-0.4,0.7-1,1.3-1.9,1.6l-15.9,5.7c-0.8,0.3-1.5,0.2-2.2-0.2
	c-0.7-0.4-1.3-1-1.6-1.8L4.2,16.9C4,16.1,4,15.2,4.4,14.4c0.3-0.8,0.9-1.4,1.8-1.7L22,7z M22.9,10L7,15.8l9.5,26L32.4,36L22.9,10z
	 M32.5,35.9l-15.9,5.8L32.5,35.9z"/>
</svg>
